<?xml version="1.0" standalone="no"?>
<!DOCTYPE svg PUBLIC "-//W3C//DTD SVG 20010904//EN"
 "http://www.w3.org/TR/2001/REC-SVG-20010904/DTD/svg10.dtd">
<svg version="1.0" xmlns="http://www.w3.org/2000/svg"
 width="800.000000pt" height="1422.000000pt" viewBox="0 0 800.000000 1422.000000"
 preserveAspectRatio="xMidYMid meet">

<!-- Agregar un rectángulo de fondo de color verde -->
<rect width="100%" height="100%" fill="green"/>

<g transform="translate(0.000000,1422.000000) scale(0.100000,-0.100000)"
fill="#000000" stroke="none">
<path d="M4782 9180 c-77 -12 -154 -55 -218 -122 -30 -32 -60 -58 -65 -58 -5
0 -9 -5 -9 -12 0 -7 -10 -22 -23 -33 -12 -11 -30 -32 -39 -46 -9 -15 -40 -53
-68 -85 -29 -33 -77 -99 -108 -147 -94 -147 -156 -240 -183 -277 -14 -19 -45
-62 -70 -95 -24 -33 -55 -83 -69 -110 -14 -28 -28 -52 -31 -55 -9 -7 -89 -139
-89 -146 0 -3 -10 -20 -23 -37 -13 -18 -38 -61 -57 -97 -18 -36 -53 -96 -78
-134 -24 -38 -61 -104 -83 -147 -22 -43 -44 -81 -50 -85 -6 -3 -32 -52 -59
-108 -44 -92 -81 -150 -170 -266 -15 -19 -32 -45 -39 -58 -6 -12 -31 -44 -54
-70 -94 -108 -179 -212 -244 -302 -53 -74 -153 -209 -168 -227 -5 -7 -16 -20
-24 -29 -8 -9 -30 -37 -49 -63 -19 -25 -38 -48 -42 -51 -4 -3 -25 -28 -46 -56
-73 -95 -142 -173 -148 -167 -3 4 -6 1 -6 -5 0 -6 -6 -17 -13 -24 -13 -13
-135 -154 -149 -173 -14 -18 -78 -117 -78 -120 0 -2 -42 -67 -92 -144 -97
-146 -169 -271 -203 -351 -11 -26 -25 -53 -32 -61 -20 -24 -53 -184 -53 -256
0 -79 28 -200 65 -281 72 -158 239 -300 453 -384 75 -30 81 -31 252 -32 153 0
191 3 296 25 171 37 342 114 425 190 14 13 48 40 75 59 69 49 221 176 274 232
80 82 174 190 199 227 34 49 161 205 219 267 26 27 85 91 132 141 119 126 222
247 271 317 22 33 72 101 110 152 38 51 69 95 69 98 0 7 49 83 189 296 64 97
130 198 148 225 30 49 153 288 153 300 0 3 25 39 55 80 75 102 187 328 285
575 10 25 36 103 59 173 23 71 45 137 50 146 5 9 30 117 56 239 l46 222 -10
128 c-18 217 -68 376 -166 520 -96 143 -195 220 -351 272 -89 30 -112 33 -234
36 -74 1 -159 -1 -188 -6z m36 -439 c9 -5 51 -25 93 -44 97 -44 151 -93 189
-171 62 -127 48 -168 -23 -63 -45 67 -117 143 -149 158 -13 5 -41 21 -63 34
-36 22 -51 25 -147 25 -59 0 -109 4 -112 9 -10 16 39 50 79 54 78 7 115 7 133
-2z m-243 -280 c23 -10 53 -33 69 -52 26 -30 28 -38 24 -101 -3 -61 -7 -71
-38 -104 -46 -47 -80 -64 -130 -64 -47 0 -126 34 -140 60 -6 10 -18 26 -27 35
-11 11 -18 39 -21 74 -4 57 -4 57 44 104 68 68 141 84 219 48z m398 -201 c41
-32 67 -98 67 -168 0 -124 -47 -172 -166 -172 -130 0 -199 61 -199 176 0 72
15 99 84 152 39 29 49 32 115 32 58 0 79 -4 99 -20z m-768 -271 c0 -8 -10 -15
-22 -17 -20 -3 -23 1 -23 29 0 30 1 31 23 17 12 -9 22 -22 22 -29z m53 -51 c7
-7 12 -20 12 -30 0 -13 -8 -18 -30 -18 -25 0 -30 4 -30 23 0 37 24 49 48 25z
m86 -113 c-7 -17 -40 -20 -49 -5 -4 6 -3 25 1 42 l6 32 24 -27 c13 -15 21 -34
18 -42z m60 -31 c16 -6 22 -35 9 -47 -10 -11 -33 13 -33 34 0 21 1 22 24 13z
m95 -33 c9 -6 10 -14 4 -25 -8 -14 -12 -14 -27 -3 -11 8 -16 19 -12 25 9 14
16 15 35 3z m105 -20 c8 -12 -21 -34 -34 -26 -17 11 -11 35 9 35 11 0 22 -4
25 -9z m95 -27 c2 -2 2 -7 -2 -10 -9 -9 -57 5 -57 16 0 9 47 4 59 -6z m-639
-4 c0 -5 -4 -10 -9 -10 -6 0 -13 5 -16 10 -3 6 1 10 9 10 9 0 16 -4 16 -10z
m70 -55 c0 -8 -4 -15 -9 -15 -5 0 -11 7 -15 15 -3 9 0 15 9 15 8 0 15 -7 15
-15z m-98 -73 c37 -38 60 -69 52 -69 -8 0 -14 4 -14 9 0 4 -5 8 -11 8 -8 0 -8
-4 0 -14 12 -14 29 -14 63 -1 11 4 21 0 30 -14 7 -12 19 -21 26 -21 7 0 20 -4
30 -10 9 -5 31 -15 47 -21 28 -10 29 -12 10 -20 -16 -8 -15 -8 7 -4 16 3 32
-1 42 -10 8 -8 17 -15 21 -15 9 0 67 -42 85 -61 9 -9 33 -24 53 -33 40 -16 43
-42 4 -30 -19 6 -20 5 -8 -10 12 -14 9 -22 -20 -62 -19 -26 -45 -57 -57 -70
-13 -12 -21 -27 -18 -32 13 -21 -75 -130 -180 -222 -16 -14 -52 -50 -81 -80
-57 -60 -101 -100 -111 -100 -4 0 -28 -19 -53 -42 -61 -57 -75 -66 -119 -69
-38 -2 -42 -0 -48 25 -8 31 -42 42 -67 22 -20 -16 -63 -5 -63 15 0 8 -6 24
-14 36 -11 16 -12 22 -3 30 9 7 5 14 -13 25 -15 9 -26 20 -26 24 0 3 25 19 56
34 48 22 62 25 100 15 24 -6 51 -18 59 -26 9 -7 24 -12 34 -9 17 3 22 12 33
70 1 5 7 13 14 17 10 6 10 9 -1 14 -10 4 -11 13 -6 31 4 13 6 37 4 53 -2 15
-1 31 3 34 4 4 11 47 14 96 4 49 10 90 15 91 4 2 6 13 3 26 -3 13 -3 23 0 23
4 0 13 -7 20 -15z"/>
</g>
</svg>
